<svg xmlns="http://www.w3.org/2000/svg" preserveAspectRatio="xMidYMid" viewBox="46.75 40 406.5 74">
  <g filter="url(#editing-hover)">
    <g transform="translate(43.84998846054077, 112)">
      <path d="M53.90-20.70L53.90-20.70L53.90-20.70Q56.50-18.80 56.50-14.75L56.50-14.75L56.50-14.75Q56.50-10.70 54.75-7.85L54.75-7.85L54.75-7.85Q53-5 49.60-2.80L49.60-2.80L49.60-2.80Q42.30 1.90 29.55 1.90L29.55 1.90L29.55 1.90Q16.80 1.90 9.85-4.75L9.85-4.75L9.85-4.75Q2.90-11.40 2.90-23.20L2.90-23.20L2.90-23.20Q2.90-39.90 11.60-52.60L11.60-52.60L11.60-52.60Q18.20-62 30-66L30-66L30-66Q36.10-68 42.10-68L42.10-68L42.10-68Q48.10-68 51.80-67.20L51.80-67.20L51.80-67.20Q55.50-66.40 58.30-64.80L58.30-64.80L58.30-64.80Q64.40-61.30 64.40-55.70L64.40-55.70L64.40-55.70Q64.40-50.60 59.60-46.80L59.60-46.80L59.60-46.80Q55.20-43.40 51.60-43.40L51.60-43.40L51.60-43.40Q48-43.40 46.50-43.90L46.50-43.90L46.50-43.90Q46.90-47.50 46.90-49.85L46.90-49.85L46.90-49.85Q46.90-52.20 46.80-53.90L46.80-53.90L46.80-53.90Q46.70-55.60 46.20-57.20L46.20-57.20L46.20-57.20Q45.20-60.90 42.15-60.90L42.15-60.90L42.15-60.90Q39.10-60.90 36.05-58.05L36.05-58.05L36.05-58.05Q33-55.20 30.40-50.40L30.40-50.40L30.40-50.40Q24.50-39.50 24.50-26.60L24.50-26.60L24.50-26.60Q24.50-20.40 28-16.85L28-16.85L28-16.85Q31.50-13.30 39-13.30L39-13.30L39-13.30Q44.60-13.30 49.90-17L49.90-17L49.90-17Q52.20-18.60 53.90-20.70ZM69.15-3L69.15-3L69.15-3Q66.80-5.60 65.75-9.70L65.75-9.70L65.75-9.70Q64.70-13.80 64.70-20.50L64.70-20.50L64.70-20.50Q64.70-27.20 67-33.30L67-33.30L67-33.30Q69.30-39.40 73.50-43.80L73.50-43.80L73.50-43.80Q82.10-53 96.30-53L96.30-53L96.30-53Q101.40-53 105.10-51.30L105.10-51.30L122.20-53L114.80-14L114.80-14Q114.50-12.80 114.50-10.60L114.50-10.60L114.50-10.60Q114.50-8.40 115.85-7L115.85-7L115.85-7Q117.20-5.60 119.20-5.40L119.20-5.40L119.20-5.40Q118.20-2 114.55 0L114.55 0L114.55 0Q110.90 2 106.80 2L106.80 2L106.80 2Q102.70 2 99.95 0.45L99.95 0.45L99.95 0.45Q97.20-1.10 96.40-3.70L96.40-3.70L96.40-3.70Q94.80-1.20 91.40 0.40L91.40 0.40L91.40 0.40Q88 2 83.45 2L83.45 2L83.45 2Q78.90 2 75.20 0.80L75.20 0.80L75.20 0.80Q71.50-0.40 69.15-3ZM90.25-43.60L90.25-43.60L90.25-43.60Q89.10-41.80 88.10-38.75L88.10-38.75L88.10-38.75Q87.10-35.70 85.45-27.55L85.45-27.55L85.45-27.55Q83.80-19.40 83.80-13.60L83.80-13.60L83.80-13.60Q83.80-7.80 84.70-6.10L84.70-6.10L84.70-6.10Q85.60-4.40 87.20-4.40L87.20-4.40L87.20-4.40Q90.40-4.40 92.75-7.45L92.75-7.45L92.75-7.45Q95.10-10.50 96-15.90L96-15.90L101.30-45.20L101.30-45.20Q99.20-47 96.75-47L96.75-47L96.75-47Q94.30-47 92.85-46.20L92.85-46.20L92.85-46.20Q91.40-45.40 90.25-43.60ZM151.50-5.50L151.50-5.50L151.50-5.50Q148.40 2 138.50 2L138.50 2L138.50 2Q133.50 2 130.30-1.50L130.30-1.50L130.30-1.50Q127.70-4.40 127.70-7.70L127.70-7.70L127.70-7.70Q127.70-15.20 131.20-31.60L131.20-31.60L138.50-70L158.80-72L149.10-21.40L149.10-21.40Q147.40-14 147.40-11.40L147.40-11.40L147.40-11.40Q147.40-5.70 151.50-5.50ZM200.50-16.90L200.50-16.90L200.50-16.90Q203-15.20 203-11.45L203-11.45L203-11.45Q203-7.70 201.10-5.30L201.10-5.30L201.10-5.30Q199.20-2.90 196.10-1.30L196.10-1.30L196.10-1.30Q189.70 2 182.80 2L182.80 2L182.80 2Q175.90 2 171.85 0.50L171.85 0.50L171.85 0.50Q167.80-1 165.10-3.80L165.10-3.80L165.10-3.80Q159.80-9.10 159.80-18.80L159.80-18.80L159.80-18.80Q159.80-33.90 168-43.10L168-43.10L168-43.10Q176.80-53 192.10-53L192.10-53L192.10-53Q201.60-53 206.30-49L206.30-49L206.30-49Q209.80-46 209.80-41.10L209.80-41.10L209.80-41.10Q209.80-23.50 179.40-23.50L179.40-23.50L179.40-23.50Q179-20.90 179-18.70L179-18.70L179-18.70Q179-14.10 181.05-12.35L181.05-12.35L181.05-12.35Q183.10-10.60 186.90-10.60L186.90-10.60L186.90-10.60Q190.70-10.60 194.75-12.35L194.75-12.35L194.75-12.35Q198.80-14.10 200.50-16.90ZM180.10-27.80L180.10-27.80L180.10-27.80Q187.20-27.80 191.30-32.20L191.30-32.20L191.30-32.20Q195.40-36.40 195.40-43.10L195.40-43.10L195.40-43.10Q195.40-45.40 194.55-46.65L194.55-46.65L194.55-46.65Q193.70-47.90 192-47.90L192-47.90L192-47.90Q190.30-47.90 188.85-47.25L188.85-47.25L188.85-47.25Q187.40-46.60 185.90-44.40L185.90-44.40L185.90-44.40Q182.20-39.40 180.10-27.80ZM255.50 2L255.50 2L255.50 2Q243.40 2 243.40-7.40L243.40-7.40L243.40-7.40Q243.50-10 244.30-14.40L244.30-14.40L246.10-23.60L246.10-23.60Q248.80-36.60 248.80-39.50L248.80-39.50L248.80-39.50Q248.80-45.30 245.40-45.30L245.40-45.30L245.40-45.30Q239.70-45.30 236.70-30.40L236.70-30.40L230.80 0L210.70 2L221.10-51.10L237.50-53L235.90-43.20L235.90-43.20Q240.60-53 255-53L255-53L255-53Q262-53 264.95-50.05L264.95-50.05L264.95-50.05Q267.90-47.10 267.90-40.50L267.90-40.50L267.90-40.50Q267.90-34.30 264.70-19.80L264.70-19.80L264.70-19.80Q263.20-13.30 263.20-10.85L263.20-10.85L263.20-10.85Q263.20-8.40 264.55-7L264.55-7L264.55-7Q265.90-5.60 267.90-5.40L267.90-5.40L267.90-5.40Q266.90-2 263.45 0L263.45 0L263.45 0Q260 2 255.50 2ZM340.80-41.50L340.80-41.50L340.80-41.50Q340.80 1.10 294.60 1.10L294.60 1.10L294.60 1.10Q287.20 1.10 275-0.70L275-0.70L286.20-59.80L286.20-59.80Q287-63.80 287.50-66.10L287.50-66.10L287.50-66.10Q302.70-67.20 309.45-67.20L309.45-67.20L309.45-67.20Q316.20-67.20 322.40-65.80L322.40-65.80L322.40-65.80Q328.60-64.40 332.70-61.30L332.70-61.30L332.70-61.30Q340.80-55.20 340.80-41.50ZM320.20-45.20L320.20-45.20L320.20-45.20Q320.20-60.10 309.50-60.10L309.50-60.10L308.50-60.10L308.50-60.10Q308-60.10 307.50-60L307.50-60L297.20-6.30L297.20-6.30Q297.60-6.10 298-6.10L298-6.10L298.80-6.10L298.80-6.10Q302.50-6.10 306.35-8.40L306.35-8.40L306.35-8.40Q310.20-10.70 313.20-15.40L313.20-15.40L313.20-15.40Q320.20-26.30 320.20-45.20ZM366.40 0L345 0L357.20-65.70L357.20-65.70Q367.10-66.80 381.55-66.80L381.55-66.80L381.55-66.80Q396-66.80 402.70-62.60L402.70-62.60L402.70-62.60Q409.40-58.40 409.40-49.95L409.40-49.95L409.40-49.95Q409.40-41.50 405.05-36.20L405.05-36.20L405.05-36.20Q400.70-30.90 393.20-29.20L393.20-29.20L393.20-29.20Q394.90-20.90 398.80-14.20L398.80-14.20L398.80-14.20Q402.40-7.90 406.60-5.90L406.60-5.90L406.60-5.90Q405.10-1.70 402.05 0.15L402.05 0.15L402.05 0.15Q399 2 394.65 2L394.65 2L394.65 2Q390.30 2 386.90-0.55L386.90-0.55L386.90-0.55Q383.50-3.10 380.80-7.80L380.80-7.80L380.80-7.80Q375.10-18 374.50-34.10L374.50-34.10L375.20-34.10L375.20-34.10Q382.60-34.30 386.30-38.15L386.30-38.15L386.30-38.15Q390-42 390-50.10L390-50.10L390-50.10Q390-60.20 381.50-60.60L381.50-60.60L379.30-60.60L379.30-60.60Q378.40-60.60 377.90-60.50L377.90-60.50L366.40 0Z"/>
    </g>
  </g>
</svg>